<svg width="59" height="93" viewBox="0 0 59 93" fill="none" xmlns="http://www.w3.org/2000/svg">
<path fill-rule="evenodd" clip-rule="evenodd" d="M2.93897 26.8081C3.44395 26.3691 3.91124 26.0664 4.49913 26.0285C4.80062 26.0058 5.10963 26.0437 5.43373 26.1345C6.27788 26.3691 6.60197 26.7551 7.24262 27.3152C10.4006 30.1079 13.5059 33.2033 16.5283 36.7605C18.0884 38.1985 18.4427 39.697 17.2217 41.135L14.9907 43.6401C13.8601 44.7754 12.4206 44.7148 10.8529 43.5796C3.79819 37.6233 -4.54532 34.5505 2.93897 26.8081ZM2.95404 40.3781C3.12739 45.6079 4.0846 48.8017 5.9161 52.2832C8.61436 55.7873 10.8152 59.1477 12.0136 62.2204C12.8502 64.3698 13.5361 66.3982 14.4556 68.5703L22.3544 92.9934H58.6754L42.0261 63.5298C40.7523 61.4712 40.481 61.9707 42.1542 60.404C45.5534 57.2026 48.4703 53.7212 51.0555 50.0959C58.1629 40.1208 61.954 36.4123 56.2033 26.1194L51.877 18.1877C46.586 8.59103 35.6724 17.4384 27.4947 22.146C25.1054 25.1279 30.5019 31.508 35.2578 29.7143L41.4005 27.3984L43.2169 31.7199C28.1881 29.737 25.128 39.4775 24.0804 52.1999C22.5805 44.3969 23.8467 38.153 26.9595 34.9819C24.2839 36.9572 21.465 39.5456 18.8798 42.7697C18.2542 43.5493 17.6437 44.3667 17.0483 45.2219C13.8978 49.445 10.7172 46.5237 7.70238 44.1472C6.08945 42.8757 4.44637 41.5134 2.95404 40.3781ZM35.7779 0.00851193C36.0944 0.031217 36.411 0.122037 36.7275 0.258268C38.3254 0.969694 40.172 4.20895 40.9709 5.69992C41.4834 6.64596 42.9305 9.21921 44.1063 11.3913L34.0142 15.4782C32.3937 12.852 30.9391 10.1577 29.4694 8.00827C28.58 6.85031 28.4368 5.68478 28.9267 4.5571C29.4995 3.24777 30.9391 2.26388 32.1224 1.52975C32.9515 1.02267 34.8584 -0.07474 35.7779 0.00851193ZM23.809 6.74435C24.1256 6.75192 24.4422 6.81247 24.7738 6.93356C25.633 7.25143 25.9345 7.68283 26.545 8.32614C27.555 9.39328 28.4745 10.6875 29.3488 12.0952C29.8387 12.8823 30.924 14.5625 32.0546 16.3562C28.5725 17.9304 23.8769 18.778 23.7186 23.2661C21.661 20.4507 19.8219 17.4384 18.0206 15.1225C17.0634 14.0175 16.8448 12.8672 17.2669 11.7092C17.9904 9.73385 21.857 6.70651 23.809 6.74435ZM13.0386 15.8037C13.3401 15.781 13.6491 15.8188 13.9732 15.9096C14.8174 16.1443 15.1414 16.5302 15.7821 17.0903C16.8297 18.0212 17.8096 19.1867 18.7592 20.4582C20.0179 22.1384 24.8341 28.299 25.52 29.7143C25.9873 30.6831 26.04 31.6897 25.1657 32.719L22.3016 35.5117C21.1711 36.6469 19.7315 36.5864 18.1638 35.4511C14.5008 31.9016 11.1468 27.4514 8.20736 24.2802C7.20493 23.3115 6.90345 22.2292 7.21247 21.0864C7.69484 19.27 11.2146 15.9248 13.0386 15.8037Z" fill="black"/>
</svg>
