<svg width="59" height="78" viewBox="0 0 59 78" fill="none" xmlns="http://www.w3.org/2000/svg">
<path d="M1.47712 39.472L1.313 39.6425L0 39.1185V19.7455C0 18.8491 0.265125 18.0032 0.719624 17.2899C0.807999 17.151 0.902687 17.0122 1.01 16.8859C1.11731 16.747 1.23094 16.6208 1.34456 16.5072L1.35719 16.4945C1.69806 16.1537 2.10206 15.857 2.55025 15.636L2.56919 15.6297L2.79012 15.5224L2.81537 15.5098C3.35825 15.2762 3.96425 15.1437 4.58918 15.1437H4.61443C5.88324 15.1437 7.03843 15.6613 7.87168 16.4945C8.21255 16.8354 8.50924 17.2394 8.73018 17.6813L8.7428 17.7065L8.8438 17.9275L8.85012 17.9464C9.08368 18.4893 9.21624 19.0953 9.21624 19.7202V19.7265V19.7518V35.5078V36.2211L8.50293 36.2653C6.55868 36.3852 4.76593 37.0102 3.25093 38.0138C2.94793 38.2158 2.65756 38.4305 2.37981 38.6577C2.121 38.8723 1.84956 39.1122 1.58444 39.3837L1.47712 39.472ZM41.4226 52.621L42.199 52.9113L42.5336 53.1575C42.5904 53.2333 42.6598 53.2964 42.7419 53.3532L42.8429 53.41V53.4163C42.9502 53.4668 43.0638 53.4921 43.1838 53.4921H43.2027C43.3163 53.4921 43.4173 53.4731 43.512 53.4353L43.5878 53.3974L43.6635 53.3532L43.6888 53.3406L43.714 53.328C44.0549 53.1323 44.5094 52.7914 45.0081 52.3811C45.5131 51.9581 46.0875 51.4405 46.6556 50.9103C47.7666 49.8624 49.0291 48.5999 49.5341 48.1012L49.5594 48.076C51.1565 46.4789 52.7851 45.7403 54.218 45.6456C54.5084 45.6267 54.7988 45.633 55.0702 45.6646C55.3479 45.6961 55.6194 45.753 55.8782 45.835H55.8845L55.9161 45.8476H55.9224C56.4337 46.0118 56.9071 46.2706 57.3238 46.6051L57.3427 46.6241L57.5384 46.7945L57.5763 46.8261L57.7593 47.0091L57.7909 47.047L57.7972 47.0533L57.8035 47.066C58.157 47.4573 58.4411 47.9181 58.6494 48.4295L58.662 48.4484L58.7567 48.7135L58.7693 48.7703L58.8451 49.0418L58.8514 49.0733L58.8577 49.1112C59.2175 50.6136 58.9208 52.4379 57.6709 54.2685C57.4374 54.6157 57.1596 54.9692 56.8566 55.3101C56.5536 55.651 56.2128 55.9981 55.834 56.3327L55.7835 56.3769L55.7204 56.4337L55.6762 56.4779L55.651 56.5031L40.1727 72.1581L39.6362 72.7452L39.5983 72.7073C38.7461 73.4837 37.9128 74.1529 37.067 74.7273C36.057 75.4091 35.0343 75.9582 33.9738 76.3749C32.907 76.7978 31.7897 77.1008 30.6093 77.2965C29.4289 77.4859 28.1853 77.5806 26.8597 77.5806H16.8228C13.4772 77.5806 10.3651 76.5958 7.75806 74.9104C7.25937 74.5884 6.76699 74.2286 6.29356 73.8436C5.81381 73.4522 5.36562 73.0482 4.95531 72.6316L4.94268 72.6189C3.67387 71.3312 2.60075 69.8288 1.78644 68.1813C1.62862 67.853 1.47712 67.5248 1.33825 67.1965C0.479749 65.1513 0.00631249 62.9103 0 60.5621V60.5431V47.3058C0 46.0875 0.22725 44.9134 0.631249 43.8403V43.834C0.706999 43.6383 0.795374 43.43 0.890062 43.2216C0.984749 43.0196 1.08575 42.8176 1.19306 42.622L1.19937 42.6093L1.21831 42.5778L1.23094 42.5525C1.62231 41.9402 2.08944 41.3658 2.61337 40.8545L2.626 40.8418L2.91637 40.5704L2.94162 40.5515L3.24462 40.2926L3.26987 40.2674L3.2825 40.2548C3.95162 39.7182 4.6965 39.2637 5.49818 38.9228C5.68124 38.8471 5.858 38.7713 5.97793 38.7335C6.96268 38.3736 8.02949 38.178 9.14049 38.178H9.16574H9.56974L9.7528 38.2032L9.92324 38.2474L10.0558 38.26H20.9575H21.0269H21.0774H21.1469H32.0485H32.0801H32.1243H32.1558H32.9638C34.5672 38.26 36.0822 38.6703 37.4142 39.39C37.6793 39.5351 37.9318 39.6866 38.1653 39.8445H38.1717C38.3989 39.996 38.6388 40.1727 38.8723 40.3621L38.8787 40.3684L38.8913 40.381C40.0402 41.3216 40.9744 42.5336 41.5741 43.916C41.7003 44.2001 41.8077 44.4778 41.8897 44.743C41.9844 45.027 42.0601 45.3174 42.1296 45.6078V45.6141L42.1359 45.6583L42.1485 45.7277C42.1548 45.7782 42.1611 45.8287 42.1738 45.8666L42.1801 45.8855L42.2053 45.955L42.218 45.9928L42.2937 46.2201L42.3316 46.6304V46.6556L42.3442 46.8198V46.845L42.3568 47.1354V47.1543V47.3121V47.3185V50.1149V51.1628L41.3595 50.8345C39.8066 50.3232 38.3232 49.976 36.9218 49.7866C36.6062 49.7425 36.3032 49.7109 36.0254 49.6793C35.7413 49.6541 35.4447 49.6288 35.148 49.6162L34.5041 49.5973C32.705 49.572 31.0448 49.8308 29.574 50.3358C29.2521 50.4495 28.9491 50.5631 28.6777 50.683C28.3936 50.8093 28.1095 50.9418 27.8444 51.087L27.3962 51.3458C25.9885 52.1917 24.8207 53.328 23.9307 54.7167C23.7476 55.0071 23.5772 55.2848 23.4383 55.5563C23.2868 55.8403 23.1479 56.1496 23.009 56.4653L23.0027 56.4842C22.5735 57.5068 22.2642 58.6305 22.0874 59.8488C22.0495 60.1265 22.0117 60.3979 21.9927 60.6568C21.9738 60.8714 21.9485 61.0986 21.9422 61.3259L23.6214 61.3448C23.6719 60.4926 23.7981 59.6783 23.9812 58.9208C24.038 58.6873 24.0948 58.4663 24.1516 58.2706C24.2084 58.0813 24.2779 57.8666 24.3599 57.652L24.5619 57.1344C25.1237 55.7898 25.938 54.6473 26.9607 53.7383C27.1627 53.5615 27.3773 53.3911 27.5856 53.2333C27.8192 53.0628 28.0401 52.9113 28.2547 52.7851L28.2673 52.7788L28.2863 52.7661C29.3594 52.1223 30.6093 51.6741 32.0107 51.4468C32.2947 51.4026 32.604 51.3585 32.9197 51.3332C33.229 51.3016 33.5509 51.289 33.8602 51.2764H33.8792H34.4978H34.5104C35.9623 51.2953 37.5341 51.5226 39.2069 51.9518C39.592 52.0465 39.9518 52.1538 40.2927 52.2611C40.684 52.3811 41.0565 52.5073 41.41 52.6273L41.4226 52.621ZM30.4515 36.24H22.7565H21.999V35.4825V4.61443C21.999 3.34562 22.5167 2.19044 23.3499 1.35719C23.6908 1.01631 24.0948 0.719624 24.5367 0.498687L24.5556 0.492375L24.7765 0.385062L24.8018 0.372437C25.3447 0.138875 25.9444 0.00631249 26.5756 0.00631249V0H26.6009V0.00631249C27.8697 0.00631249 29.0248 0.523937 29.8581 1.35719C30.199 1.69806 30.4893 2.10206 30.7166 2.54394L30.7292 2.56287L30.8302 2.78381L30.8428 2.80906C31.0764 3.35193 31.209 3.95162 31.209 4.58287V4.58918V4.61443V35.4762V36.2337H30.4515V36.24ZM33.8539 36.2716L33.715 36.259L33.008 36.2022V35.5015V12.0064C33.008 10.7376 33.5257 9.58237 34.3589 8.74912C34.6998 8.40824 35.1038 8.11787 35.552 7.89062L35.5772 7.87799L35.7982 7.77699L35.8171 7.76437C36.36 7.53081 36.9597 7.39824 37.5909 7.39824H37.6162C38.5125 7.39824 39.3584 7.66337 40.0717 8.11787L40.078 8.12418C40.2169 8.20624 40.3495 8.30724 40.4757 8.40824L40.482 8.41455C40.6146 8.51555 40.7408 8.62918 40.8545 8.7428L40.8671 8.75543C41.208 9.0963 41.5047 9.5003 41.7256 9.94218L41.7319 9.96112L41.8392 10.1821L41.8518 10.2073C42.0854 10.7502 42.218 11.3562 42.218 11.9811V12.0064V39.087L40.9113 39.6172L40.785 39.491C39.4847 38.1906 37.8623 37.2058 36.057 36.6819C35.6972 36.5746 35.3247 36.4862 34.9649 36.4231C34.6177 36.3537 34.239 36.3032 33.8539 36.2716ZM19.3667 36.24H11.6718H10.908V35.4825V19.7455V11.9306C10.908 11.0342 11.1731 10.1821 11.6276 9.46874C11.716 9.32355 11.817 9.18468 11.918 9.05843C12.0253 8.91955 12.1389 8.7933 12.2462 8.68599L12.2589 8.67337C12.5997 8.33249 13.0037 8.04212 13.4519 7.81487L13.4709 7.80856L13.6918 7.70756L13.717 7.69493C14.2599 7.46137 14.8596 7.32881 15.4909 7.32881H15.5161C16.7849 7.32881 17.9401 7.84643 18.7734 8.67968C19.1142 9.02055 19.4046 9.42455 19.6319 9.86643L19.6382 9.88537L19.7455 10.1063L19.7581 10.1316C19.9917 10.6744 20.1242 11.2804 20.1242 11.9054V11.9306V35.4762V36.2337H19.3667V36.24Z" fill="black"/>
</svg>
