<svg width="13" height="13" viewBox="0 0 13 13" fill="none" xmlns="http://www.w3.org/2000/svg">
<path d="M6.5 12.5517C10.0899 12.5517 13 9.74193 13 6.27586C13 2.8098 10.0899 0 6.5 0C2.91015 0 0 2.8098 0 6.27586C0 9.74193 2.91015 12.5517 6.5 12.5517Z" fill="#71A2F6"/>
<path d="M4.94605 11.3659C4.04686 10.967 3.25099 10.3606 2.62125 9.59466C1.99151 8.82871 1.54513 7.92416 1.31734 6.95237C1.08955 5.98059 1.08659 4.96817 1.30868 3.99502C1.53078 3.02187 1.97184 2.11461 2.59709 1.34485C1.87217 1.88403 1.26811 2.57411 0.825008 3.36929C0.381907 4.16446 0.109902 5.04655 0.0270336 5.957C-0.0558347 6.86745 0.0523349 7.78544 0.344364 8.65005C0.636393 9.51466 1.1056 10.3061 1.72084 10.9719C2.33609 11.6376 3.08331 12.1625 3.9129 12.5116C4.74248 12.8607 5.63547 13.026 6.53259 12.9967C7.42971 12.9674 8.31044 12.744 9.11634 12.3414C9.92223 11.9388 10.6348 11.3662 11.2069 10.6616C10.3147 11.3259 9.26714 11.7405 8.16866 11.8641C7.07019 11.9876 5.95909 11.8159 4.94605 11.3659Z" fill="#3F3D56"/>
</svg>
