<svg width="70" height="81" viewBox="0 0 70 81" fill="none" xmlns="http://www.w3.org/2000/svg">
<path d="M5.46608 71.183C8.60365 70.8936 17.352 70.1437 20.0949 65.9143C20.3712 65.4867 22.6602 61.6914 22.6602 61.6716L32.1058 65.2696C32.3097 66.3023 26.7713 74.0377 25.7649 74.8731C24.4822 75.9387 23.2522 76.5241 21.9498 77.0174C17.5756 78.6619 13.8132 79.9906 8.8536 80.8259L5.46608 71.183ZM25.0019 32.5258L20.9632 47.1546C20.0028 51.884 21.0421 55.8898 25.4952 58.6525C27.8171 60.093 28.4683 60.0206 31.1257 60.7902L43.3932 63.6055C44.1233 63.7699 58.6995 75.5703 60.0677 76.7477L66.3625 71.0778C67.2768 70.2555 51.8389 56.6331 49.1487 55.2978C36.3747 48.9635 35.8354 56.2056 40.6437 37.9261C43.084 40.3072 44.9323 42.9646 49.5631 44.7801C55.2001 46.2206 58.3443 44.2341 63.0342 42.7147L70 40.2086L66.994 31.7167L60.0282 34.2228C59.8309 34.2886 59.331 34.4728 58.4561 34.7754C56.2855 35.3016 54.3648 36.6829 52.99 36.0186C48.4317 33.815 45.7282 24.5141 33.0004 23.5012C31.0863 23.3499 27.5277 22.8697 24.7519 22.7908C14.4315 22.1922 10.9124 26.0599 5.26217 31.8615C2.66397 34.3741 2.62451 34.3478 0 36.8408L6.67638 43.4843C9.32062 40.9716 9.37982 40.9847 11.9977 38.4457C14.3723 36.1764 15.997 33.8348 18.4373 32.8349C20.0226 32.1838 22.0682 32.4534 24.502 32.4995C24.673 32.5126 24.8374 32.5192 25.0019 32.5258ZM36.9141 0.479195C42.0447 -1.18497 47.5569 1.62372 49.2276 6.76091C50.8917 11.8915 48.0831 17.4036 42.9459 19.0744C37.8153 20.7385 32.3031 17.9299 30.6324 12.7927C28.9682 7.65548 31.7835 2.14336 36.9141 0.479195Z" fill="black"/>
</svg>
