<svg width="447" height="304" viewBox="0 0 447 304" fill="none" xmlns="http://www.w3.org/2000/svg">
<path opacity="0.2" d="M180.013 224.05C112.619 229.69 54.7691 203.536 41.3203 156.749C24.928 99.7228 80.7074 33.6401 165.906 9.1489C234.601 -10.5979 301.445 2.72136 333.361 38.5138C383.439 41.7647 423.961 65.8178 434.892 103.845C450.474 158.054 400.024 220.132 322.208 242.501C303.191 247.967 284.296 250.556 266.377 250.557C232.025 250.557 201.249 241.044 180.013 224.05Z" fill="url(#paint0_linear)"/>
<g opacity="0.3">
<path opacity="0.3" d="M216.437 233.644C220.987 234.487 229.126 222.442 228.703 211.592C228.28 200.742 218.226 202.83 221.688 182.99C225.149 163.15 229.398 153.796 209.616 136.407C189.834 119.019 192.125 101.373 176.234 103.284C160.343 105.195 164.323 128.151 175.603 143.67C186.883 159.188 185.985 164.348 172.719 170.009C159.454 175.67 184.229 193.516 187.383 198.766C190.537 204.016 188.971 218.228 194.919 224.638C200.867 231.049 211.888 232.801 216.437 233.644Z" fill="url(#paint1_linear)"/>
<path opacity="0.3" d="M209.849 206.477C207.428 202.448 198.867 190.505 188.735 186.187" stroke="#707070" stroke-width="6" stroke-miterlimit="10" stroke-linecap="round"/>
<path opacity="0.3" d="M204.379 177.763C201.958 173.734 211.57 164.108 212.513 153.136" stroke="#707070" stroke-width="6" stroke-miterlimit="10" stroke-linecap="round"/>
<path opacity="0.3" d="M221.105 256.525C220.075 254.81 218.384 245.309 215.825 234.66C207.812 201.315 201.307 158.233 186.932 134.309" stroke="#707070" stroke-width="6" stroke-miterlimit="10" stroke-linecap="round"/>
</g>
<g opacity="0.3">
<path opacity="0.3" d="M289.424 230.893C289.172 216.095 300.763 170.09 317.034 144.748" stroke="#707070" stroke-width="6.00087" stroke-miterlimit="10" stroke-linecap="round"/>
<path opacity="0.3" d="M309.42 151.846C311.453 150.626 309.997 144.467 306.169 138.09C302.341 131.712 297.59 127.531 295.558 128.751C293.525 129.971 294.981 136.13 298.809 142.507C302.637 148.885 307.388 153.066 309.42 151.846Z" fill="url(#paint2_linear)"/>
<path opacity="0.3" d="M313.752 154.322C313.875 156.688 319.994 158.293 327.42 157.907C334.845 157.52 340.764 155.288 340.641 152.922C340.518 150.556 334.399 148.951 326.973 149.338C319.548 149.724 313.629 151.956 313.752 154.322Z" fill="url(#paint3_linear)"/>
<path opacity="0.3" d="M306.061 173.298C306.061 175.669 312.092 177.591 319.531 177.591C326.97 177.591 333.001 175.669 333.001 173.298C333.001 170.928 326.97 169.006 319.531 169.006C312.092 169.006 306.061 170.928 306.061 173.298Z" fill="url(#paint4_linear)"/>
<path opacity="0.3" d="M299.872 192.352C299.872 194.723 305.902 196.645 313.342 196.645C320.781 196.645 326.812 194.723 326.812 192.352C326.812 189.981 320.781 188.06 313.342 188.06C305.902 188.06 299.872 189.981 299.872 192.352Z" fill="url(#paint5_linear)"/>
<path opacity="0.3" d="M318.392 141.913C320.403 143.171 325.232 139.076 329.179 132.768C333.126 126.459 334.696 120.325 332.686 119.068C330.676 117.81 325.846 121.904 321.899 128.213C317.952 134.521 316.382 140.655 318.392 141.913Z" fill="url(#paint6_linear)"/>
<path opacity="0.3" d="M301.2 171.157C302.963 169.572 300.359 163.804 295.384 158.274C290.409 152.744 284.948 149.546 283.186 151.132C281.424 152.717 284.028 158.485 289.002 164.015C293.977 169.545 299.438 172.742 301.2 171.157Z" fill="url(#paint7_linear)"/>
<path opacity="0.3" d="M294.559 191.014C296.146 189.253 292.953 183.789 287.428 178.809C281.903 173.829 276.137 171.22 274.55 172.981C272.963 174.742 276.156 180.206 281.681 185.185C287.207 190.165 292.972 192.774 294.559 191.014Z" fill="url(#paint8_linear)"/>
</g>
<path d="M441.022 134.771L359.209 119.502C335.466 154.292 324.23 183.632 325.502 207.521C340.503 213.739 369.381 223.578 412.138 237.039L446.54 144.52C446.912 143.519 447.061 142.45 446.976 141.386C446.891 140.322 446.575 139.29 446.049 138.361C445.524 137.433 444.801 136.63 443.933 136.01C443.064 135.39 442.071 134.967 441.022 134.771Z" fill="url(#paint9_linear)"/>
<path d="M359.236 139.432C359.982 142.007 359.645 143.866 358.223 145.009C356.089 146.722 353.947 149.636 351.835 149.877C349.724 150.119 347.437 151.275 347.066 154.237C346.888 155.668 339.559 163.067 336.941 173.247C336.278 175.825 337.085 179.79 339.36 185.144L345.415 181.813L354.038 167.845C363.615 164.518 369.014 162.457 370.235 161.662C372.065 160.47 377.995 155.366 376.853 153.455C375.712 151.543 379.43 139.387 381.64 137.024C383.849 134.661 385.66 128.904 385.703 126.778C385.747 124.653 386.514 118.288 380.998 118.491C377.321 118.627 370.067 125.607 359.236 139.432Z" fill="url(#paint10_linear)"/>
<path d="M379.865 150.365C379.865 150.365 369.404 131.799 364.517 127.14C359.63 122.48 387.834 117.783 387.834 117.783L379.865 153.87V150.365Z" fill="url(#paint11_linear)"/>
<path d="M353.519 95.7598C350.993 97.4597 353.148 104.302 350.415 108.206C348.921 110.341 345.778 111.528 344.327 112.379C340.222 114.783 344.44 116.499 345.288 117.93C346.137 119.361 345.46 122.594 344.825 125.141C344.19 127.688 341.936 133.431 344.353 134.714C346.769 135.997 361.607 141.601 365.898 139.89C370.188 138.18 371.722 129.609 372.779 129.051C373.837 128.494 374.58 129.082 375.556 129.325C378.097 129.959 380.392 128.535 381.613 126.507C382.997 124.211 384.964 125.259 383.9 122.122C382.26 117.283 372.753 98.2215 368.973 96.8514C365.194 95.4812 357.423 93.1301 353.519 95.7598Z" fill="url(#paint12_radial)"/>
<path d="M365.843 100.997C356.179 98.5882 351.687 100.746 348.189 93.2369C346.123 88.8014 350.146 75.1955 356.922 74.8877C358.589 82.4932 366.645 83.147 371.312 83.7788C396.374 87.1717 398.996 110.086 391.494 123.584C389.61 127.066 387.384 130.352 384.85 133.394C383.584 134.88 381.93 136.67 381.372 137.52C381.185 137.803 379.569 141.382 379.289 141.313C378.445 141.102 378.784 141.06 379.198 137.355C379.439 134.748 379.906 132.166 380.596 129.64C380.818 128.75 385.02 121.911 381.793 119.435C379.641 117.784 376.735 118.793 373.073 122.46L370.849 121.62C372.318 118.353 373.246 115.941 373.634 114.386C374.216 112.051 375.505 103.406 365.843 100.997Z" fill="url(#paint13_linear)"/>
<path d="M365.843 100.997C356.179 98.5882 351.687 100.746 348.189 93.2369C346.123 88.8014 350.146 75.1955 356.922 74.8877C358.589 82.4932 366.645 83.147 371.312 83.7788C396.374 87.1717 398.996 110.086 391.494 123.584C389.61 127.066 387.384 130.352 384.85 133.394C383.584 134.88 381.93 136.67 381.372 137.52C381.185 137.803 379.569 141.382 379.289 141.313C378.445 141.102 378.784 141.06 379.198 137.355C379.439 134.748 379.906 132.166 380.596 129.64C380.818 128.75 385.02 121.911 381.793 119.435C379.641 117.784 376.735 118.793 373.073 122.46L370.849 121.62C372.318 118.353 373.246 115.941 373.634 114.386C374.216 112.051 375.505 103.406 365.843 100.997Z" fill="url(#paint14_linear)"/>
<path d="M370.852 121.731C370.114 123.375 367.331 127.164 364.819 128.532C362.308 129.901 357.017 129.985 355.932 128.423C354.846 126.861 349.917 119.795 345.473 118.686C344.988 120.255 344.377 121.782 343.647 123.254C347.086 124.683 349.083 126.028 349.639 127.288C350.473 129.178 350.92 127.91 350.088 128.752C349.256 129.594 344.908 128.946 344.578 125.669C343.324 128.279 341.977 135.323 342.452 136.933C342.927 138.542 345.66 139.28 348.358 139.454C351.055 139.627 360.667 141.094 363.115 140.594C365.562 140.094 368.672 140.381 370.721 134.451C372.769 128.52 372.313 124.677 374.985 119.626C377.657 114.574 371.589 120.086 370.852 121.731Z" fill="url(#paint15_linear)"/>
<path d="M378.508 145.718C388.662 148.03 395.485 151.885 398.976 157.282C404.213 165.377 406.836 186.881 406.836 193.856C406.836 200.83 407.671 217.942 406.836 222.609C406.001 227.276 402.167 230.744 394.232 230.744C388.942 230.744 358.957 220.904 304.278 201.225C311.469 197.669 315.178 195.213 315.406 193.856C315.75 191.82 332.436 154.703 337.714 150.922C342.991 147.141 353.947 145.352 358.339 145.352C357.697 147.134 356.269 148.573 358.288 150.922C360.308 153.272 364.271 153.682 368.196 152.051C370.813 150.964 374.25 148.853 378.508 145.718Z" fill="#3D82F0"/>
<path d="M378.508 145.718C388.662 148.03 395.485 151.885 398.976 157.282C404.213 165.377 406.836 186.881 406.836 193.856C406.836 200.83 407.671 217.942 406.836 222.609C406.001 227.276 402.167 230.744 394.232 230.744C388.942 230.744 358.957 220.904 304.278 201.225C311.469 197.669 315.178 195.213 315.406 193.856C315.75 191.82 332.436 154.703 337.714 150.922C342.991 147.141 353.947 145.352 358.339 145.352C357.697 147.134 356.269 148.573 358.288 150.922C360.308 153.272 364.271 153.682 368.196 152.051C370.813 150.964 374.25 148.853 378.508 145.718Z" fill="url(#paint16_linear)"/>
<path opacity="0.585" d="M352.991 146.782C344.582 155.39 361.171 159.974 367.943 157.683C374.715 155.391 382.32 146.782 382.32 146.782C382.32 146.782 363.166 132.528 358.078 139.655C352.991 146.782 361.4 138.174 352.991 146.782Z" fill="url(#paint17_linear)"/>
<path opacity="0.547" d="M341.007 224.662C346.995 224.662 385.929 218.214 385.929 212.981C385.929 207.748 382.927 170.879 382.927 170.879" fill="url(#paint18_linear)"/>
<path opacity="0.547" d="M286.463 201.966C289.175 201.966 301.715 217.852 313.171 212.505C327.01 206.045 335.069 182.129 335.069 179.267C335.069 177.077 338.702 169.31 337.318 160.846C336.498 155.827 329.804 144.927 329.804 144.927" fill="url(#paint19_linear)"/>
<path d="M58.3485 124.271L132.631 106.322C146.371 143.364 152.604 173.829 151.331 197.718C136.33 203.936 113.829 211.997 83.828 221.902L53.1527 133.793C52.5147 131.959 52.6312 129.947 53.4765 128.199C54.3219 126.451 55.827 125.111 57.6607 124.473C57.8864 124.394 58.1157 124.327 58.3485 124.271Z" fill="url(#paint20_linear)"/>
<path d="M142.905 111.333C141.314 116.37 146.481 130.592 154.689 137.543C162.897 144.494 136.496 143.311 136.481 135.563C136.467 127.814 144.495 106.297 142.905 111.333Z" fill="#316EEA"/>
<path d="M146.497 127.117C152.704 129.677 157.179 132.41 159.922 135.317C164.036 139.678 184.045 173.599 186.404 175.608C188.762 177.616 204.999 179.137 207.443 179.938C206.193 181.748 203.76 187.333 205.01 192.248C201.152 194.19 192.677 192.456 175.34 190.514C162.443 179.728 155.747 162.713 152.99 154.591C150.232 146.469 148.069 137.311 146.497 127.117Z" fill="url(#paint21_linear)"/>
<path d="M155.014 132.936C160.025 141.507 167.755 158.719 169.949 166.149C172.305 174.117 163.154 195.102 163.26 200.033C163.348 204.145 159.117 202.71 121.53 206.492C120.368 199.242 120.368 190.177 121.53 179.297C123.271 162.977 116.171 141.019 118.139 137.332C120.108 133.645 124.897 125.805 126.999 125.805C129.102 125.805 150.003 124.364 155.014 132.936Z" fill="url(#paint22_radial)"/>
<path d="M0 223.154L226.917 175.784C230.864 174.96 234.961 175.238 238.76 176.589L430.938 244.887C446.166 250.299 443.378 285.498 427.487 288.445L347.986 303.185C345.785 303.593 343.551 303.798 341.313 303.799H36.6054C26.8971 303.799 17.5863 299.942 10.7215 293.077C3.85663 286.212 0 276.901 0 267.193L0 223.154Z" fill="url(#paint23_linear)"/>
<path style="mix-blend-mode:multiply" opacity="0.197" d="M162.749 230.996L252.359 216.513L320.539 246.385L221.834 272.569" fill="url(#paint24_linear)"/>
<path d="M140.922 113.42C139.986 117.796 140.794 120.961 140.794 125.943C140.794 132.6 127.2 129.891 126.737 124.844C126.274 119.798 126.822 113.032 124.907 108.448C122.993 103.863 141.859 109.044 140.922 113.42Z" fill="url(#paint25_linear)"/>
<path d="M140.922 113.42C139.986 117.796 140.794 120.961 140.794 125.943C140.794 132.6 127.2 129.891 126.737 124.844C126.274 119.798 126.822 113.032 124.907 108.448C122.993 103.863 141.859 109.044 140.922 113.42Z" fill="url(#paint26_linear)"/>
<path opacity="0.717" d="M121.462 132.894C121.462 132.894 141.995 115.689 146.734 115.689C151.473 115.689 121.462 109.921 121.462 109.921V132.894Z" fill="url(#paint27_linear)"/>
<path d="M145.096 78.2074C146.304 82.0228 146.169 86.2537 148.514 89.8974C150.858 93.5411 153.947 96.7228 154.768 98.3415C155.589 99.9602 151.476 101.399 151.476 102.846C151.476 104.294 154.216 114.367 152.75 115.329C151.915 117.578 136.53 120.696 132.645 118.462C129.221 118.462 123.943 115.458 120.703 108.075C117.464 100.692 117.315 82.7637 120.703 78.2049C124.092 73.646 143.888 74.3921 145.096 78.2074Z" fill="url(#paint28_linear)"/>
<path d="M169.1 224.039L174.232 182.401L244.222 180.998L238.103 221.649L169.1 224.039Z" fill="url(#paint29_linear)"/>
<path style="mix-blend-mode:multiply" opacity="0.458" d="M241.808 212.819L232.697 179.903H247.376L241.808 212.819Z" fill="url(#paint30_linear)"/>
<path style="mix-blend-mode:multiply" opacity="0.528" d="M176.878 204.832C176.878 207.458 183.202 211.27 190.638 214.607C194.949 216.542 194.355 221.034 196.231 221.034C201.343 221.034 165.046 235.786 165.046 235.786C165.046 235.786 163.077 215.836 165.046 210.628C167.191 204.956 176.878 203.389 176.878 204.832Z" fill="url(#paint31_linear)"/>
<path d="M163.401 207.147C165.526 207.147 168.1 206.023 171.857 205.164C175.614 204.305 177.986 202.94 179.141 204.21C179.592 204.706 178.84 205.914 178.29 206.244C177.741 206.573 177.448 207.058 174.825 208.028C172.389 208.929 170.978 209.35 171.42 210.188C171.862 211.026 175.85 211.757 177.129 212.096C178.76 212.528 181.213 213.37 183.552 213.763C186.166 214.202 189.055 214.25 189.387 214.442C190.016 214.805 190.935 216.172 189.387 216.607C189.021 216.71 186.375 216.764 183.158 216.607C179.722 216.44 176.571 215.782 177.129 216.607C177.262 216.803 180.43 217.449 183.911 217.449C185.973 217.449 190.148 217.705 190.412 217.705C190.635 217.716 190.849 217.796 191.024 217.934C191.2 218.073 191.328 218.262 191.39 218.477C191.453 218.691 191.447 218.92 191.373 219.131C191.299 219.341 191.162 219.524 190.979 219.653C190.777 219.803 186.75 220.259 183.552 220.376C179.872 220.512 176.615 220.178 176.577 220.376C176.548 220.52 180.425 221.008 183.911 220.842C186.729 220.708 188.282 220.487 188.809 220.842C189.336 221.197 189.203 222.145 188.809 222.572C188.646 222.75 186.097 223.56 183.552 223.729C179.979 223.965 176.096 223.552 176.062 223.729C175.971 224.198 182.574 224.495 183.552 224.495C184.943 224.495 184.77 226.297 183.158 226.678C181.134 227.157 176.95 227.121 175.047 227.121C172.438 227.049 169.861 226.541 167.42 225.617C164.557 224.556 160.736 223.131 158.313 222.574C155.694 221.972 157.574 213.694 159.387 209.35C161.2 205.007 161.276 207.147 163.401 207.147Z" fill="url(#paint32_linear)"/>
<path d="M100.14 159.389C94.7253 173.234 99.0048 183.742 101.382 195.738C103.76 207.734 104.84 210.329 108.628 212.769C112.416 215.208 121.704 218.606 157.403 222.728C157.403 219.877 157.312 212.793 161.979 206.845C155.382 206.845 131.932 200.377 123.87 198.35C116.626 192.799 123.87 183.898 123.87 167.199C123.87 150.5 105.554 145.544 100.14 159.389Z" fill="url(#paint33_linear)"/>
<path d="M139.284 92.4688L121.011 95.9097V97.2802L139.936 95.8397L139.284 92.4688Z" fill="#143B8C"/>
<path d="M144.15 99.6238C142.04 99.8457 140.044 97.3342 139.696 94.0188C139.347 90.7035 140.778 87.8321 142.887 87.6103C144.997 87.3885 146.992 89.9003 147.341 93.2153C147.689 96.5303 146.26 99.4024 144.15 99.6238Z" stroke="#143B8C" stroke-width="4" stroke-miterlimit="10"/>
<path d="M154.34 93.7175C152.431 93.9181 150.625 91.6456 150.31 88.6462C149.995 85.6467 151.288 83.0489 153.197 82.8483C155.106 82.6477 156.911 84.9201 157.227 87.9196C157.542 90.919 156.248 93.5169 154.34 93.7175Z" stroke="#143B8C" stroke-width="4" stroke-miterlimit="10"/>
<path d="M146.957 92.0573C146.957 91.2213 149.318 89.5814 150.502 90.4064" stroke="#143B8C" stroke-width="4" stroke-miterlimit="10"/>
<path d="M121.973 79.9438C127.032 83.8555 138.803 85.0027 146.815 81.225C154.827 77.4473 156.782 61.9728 146.815 57.2119C143.024 55.3999 135.494 56.572 136.538 62.0302C127.818 58.6582 118.335 61.6111 114.575 63.8605C108.718 67.3651 104.151 71.1838 101.75 79.2117C99.3488 87.2397 103.269 95.2229 101.339 99.3114C99.4103 103.4 93.7255 106.949 96.7638 119.512C99.802 132.075 92.5022 130.065 90.8571 137.73C89.2121 145.395 94.4536 149.05 90.8571 154.156C87.2606 159.262 80.3653 180.817 93.2797 192.362C106.194 203.907 130.258 212.319 135.727 187.466C141.195 162.612 115.543 157.187 123.071 144.758C130.599 132.33 125.612 120.808 127.188 117.255C129.128 112.883 127.042 106.212 123.361 97.1715C119.951 88.798 124.861 86.5625 121.973 79.9438Z" fill="url(#paint34_linear)"/>
<path d="M121.973 79.9438C127.032 83.8555 138.803 85.0027 146.815 81.225C154.827 77.4473 156.782 61.9728 146.815 57.2119C143.024 55.3999 135.494 56.572 136.538 62.0302C127.818 58.6582 118.335 61.6111 114.575 63.8605C108.718 67.3651 104.151 71.1838 101.75 79.2117C99.3488 87.2397 103.269 95.2229 101.339 99.3114C99.4103 103.4 93.7255 106.949 96.7638 119.512C99.802 132.075 92.5022 130.065 90.8571 137.73C89.2121 145.395 94.4536 149.05 90.8571 154.156C87.2606 159.262 80.3653 180.817 93.2797 192.362C106.194 203.907 130.258 212.319 135.727 187.466C141.195 162.612 115.543 157.187 123.071 144.758C130.599 132.33 125.612 120.808 127.188 117.255C129.128 112.883 127.042 106.212 123.361 97.1715C119.951 88.798 124.861 86.5625 121.973 79.9438Z" fill="url(#paint35_linear)"/>
<path d="M166.898 255.255L215.606 246.887C242.49 263.687 255.665 272.142 255.131 272.25C254.371 272.403 200.589 281.808 196.954 282.782C197.294 281.915 187.275 272.739 166.898 255.255Z" fill="url(#paint36_linear)"/>
<path d="M195.817 242.259L246.718 238.834L274.702 263.283L211.286 267.658L195.817 242.259Z" fill="url(#paint37_linear)"/>
<path d="M320.759 245.919L366.987 227.512C367.332 227.374 367.627 227.135 367.833 226.826C368.039 226.516 368.146 226.151 368.139 225.78C368.133 225.408 368.014 225.047 367.797 224.745C367.58 224.443 367.277 224.214 366.927 224.089L308.065 202.992L249.999 217.343L320.759 245.919Z" fill="url(#paint38_linear)"/>
<path d="M239.706 157.564L304.931 178.671C305.873 178.976 306.715 179.53 307.368 180.274C308.021 181.018 308.46 181.925 308.64 182.899L320.31 246.149L249.632 217.478L236.886 160.13C236.802 159.753 236.82 159.359 236.937 158.991C237.054 158.622 237.266 158.291 237.552 158.03C237.838 157.77 238.188 157.59 238.566 157.508C238.944 157.426 239.337 157.445 239.705 157.564H239.706Z" fill="url(#paint39_linear)"/>
<path d="M239.706 157.564L304.931 178.671C305.873 178.976 306.715 179.53 307.368 180.274C308.021 181.018 308.46 181.925 308.64 182.899L320.31 246.149L249.632 217.478L236.886 160.13C236.802 159.753 236.82 159.359 236.937 158.991C237.054 158.622 237.266 158.291 237.552 158.03C237.838 157.77 238.188 157.59 238.566 157.508C238.944 157.426 239.337 157.445 239.705 157.564H239.706Z" fill="url(#paint40_linear)"/>
<path d="M272.425 204.18C275.787 205.819 279.331 205.816 280.794 202.818C282.256 199.82 279.618 196.426 276.256 194.787C272.895 193.147 269.716 193.151 268.254 196.149C266.792 199.147 269.064 202.54 272.425 204.18Z" fill="#D6E3FA"/>
<path d="M151.632 105.538C151.991 105.352 151.878 106.172 152.034 106.653C152.159 106.935 152.264 107.226 152.349 107.523C150.858 108.291 148.263 108.442 146.526 107.413C146.178 107.209 145.873 107.04 146.162 106.756C146.451 106.472 146.81 106.65 147.197 106.765C148.551 107.165 150.703 106.016 151.632 105.538Z" fill="#1A418F"/>
<path opacity="0.7" d="M99.2015 270.316C111.331 270.316 121.165 272.447 121.165 275.075C121.165 277.703 111.331 279.834 99.2015 279.834C87.0716 279.834 77.2383 277.703 77.2383 275.075C77.2383 272.447 87.0716 270.316 99.2015 270.316Z" fill="url(#paint41_linear)"/>
<path d="M128.469 247.39C130.15 250.298 131.039 253.596 131.047 256.955C131.047 269.186 119.247 279.101 104.691 279.101C90.1347 279.101 78.335 269.186 78.335 256.955C78.3453 253.399 79.34 249.915 81.2089 246.889C92.8845 248.737 116.124 248.618 128.469 247.39Z" fill="url(#paint42_linear)"/>
<path d="M104.874 242.496C118.116 242.496 128.851 245.037 128.851 248.17C128.851 251.303 118.116 253.844 104.874 253.844C91.632 253.844 80.8975 251.303 80.8975 248.17C80.8975 245.037 91.632 242.496 104.874 242.496Z" fill="url(#paint43_linear)"/>
<path d="M102.862 243.96C101.553 234.898 97.9508 221.813 87.1219 207.72C80.743 199.418 80.7221 179.201 79.8008 176.972C84.8062 178.692 93.798 183.13 102.862 195.64C112.364 208.755 106.336 235.5 102.862 243.96Z" fill="url(#paint44_linear)"/>
<g style="mix-blend-mode:multiply" opacity="0.5">
<path d="M102.495 243.959C103.495 221.933 100.752 208.032 92.1299 194.908" stroke="#489C71" stroke-width="3" stroke-miterlimit="10"/>
</g>
<path d="M102.902 253.26C98.8571 246.79 91.7099 238.021 78.7091 230.912C71.052 226.724 64.2386 211.313 62.7861 209.922C67.1843 209.553 75.5373 209.916 86.6595 216.411C98.3183 223.22 102.71 245.643 102.902 253.26Z" fill="url(#paint45_linear)"/>
<g style="mix-blend-mode:multiply" opacity="0.5">
<path d="M102.622 253.383C95.9795 236.25 89.2144 226.57 78.2236 219.459" stroke="#489C71" stroke-width="3" stroke-miterlimit="10"/>
</g>
<path d="M105.808 254.147C108.997 247.182 114.978 237.53 127.005 228.774C134.09 223.616 138.875 207.393 140.142 205.822C135.713 206.022 127.44 207.46 117.205 215.362C106.475 223.643 105.011 246.536 105.808 254.147Z" fill="url(#paint46_linear)"/>
<g style="mix-blend-mode:multiply" opacity="0.5">
<path d="M104.88 254.131C109.273 236.215 114.755 225.703 124.78 217.205" stroke="#489C71" stroke-width="3" stroke-miterlimit="10"/>
</g>
<defs>
<linearGradient id="paint0_linear" x1="238.089" y1="125.278" x2="238.089" y2="0" gradientUnits="userSpaceOnUse">
<stop stop-color="#ECF2FC" stop-opacity="0.643"/>
<stop offset="1" stop-color="#D4E1F8"/>
</linearGradient>
<linearGradient id="paint1_linear" x1="165.139" y1="94.1331" x2="123.663" y2="148.376" gradientUnits="userSpaceOnUse">
<stop stop-color="#CFDDF3"/>
<stop offset="1" stop-color="#A1B8E3"/>
</linearGradient>
<linearGradient id="paint2_linear" x1="304.428" y1="113.908" x2="288.039" y2="129.808" gradientUnits="userSpaceOnUse">
<stop stop-color="#CFDDF3"/>
<stop offset="1" stop-color="#A1B8E3"/>
</linearGradient>
<linearGradient id="paint3_linear" x1="349.581" y1="167.716" x2="343.236" y2="145.79" gradientUnits="userSpaceOnUse">
<stop stop-color="#CFDDF3"/>
<stop offset="1" stop-color="#A1B8E3"/>
</linearGradient>
<linearGradient id="paint4_linear" x1="341.164" y1="188.545" x2="335.964" y2="166.307" gradientUnits="userSpaceOnUse">
<stop stop-color="#CFDDF3"/>
<stop offset="1" stop-color="#A1B8E3"/>
</linearGradient>
<linearGradient id="paint5_linear" x1="334.974" y1="207.599" x2="329.775" y2="185.361" gradientUnits="userSpaceOnUse">
<stop stop-color="#CFDDF3"/>
<stop offset="1" stop-color="#A1B8E3"/>
</linearGradient>
<linearGradient id="paint6_linear" x1="349.947" y1="120.235" x2="328.33" y2="112.845" gradientUnits="userSpaceOnUse">
<stop stop-color="#CFDDF3"/>
<stop offset="1" stop-color="#A1B8E3"/>
</linearGradient>
<linearGradient id="paint7_linear" x1="289.061" y1="134.868" x2="276.007" y2="153.604" gradientUnits="userSpaceOnUse">
<stop stop-color="#CFDDF3"/>
<stop offset="1" stop-color="#A1B8E3"/>
</linearGradient>
<linearGradient id="paint8_linear" x1="278.693" y1="156.192" x2="267.669" y2="176.19" gradientUnits="userSpaceOnUse">
<stop stop-color="#CFDDF3"/>
<stop offset="1" stop-color="#A1B8E3"/>
</linearGradient>
<linearGradient id="paint9_linear" x1="372.827" y1="168.397" x2="418.425" y2="154.884" gradientUnits="userSpaceOnUse">
<stop stop-color="#7FA0D4"/>
<stop offset="1" stop-color="#D6E3FA"/>
</linearGradient>
<linearGradient id="paint10_linear" x1="376.297" y1="126.419" x2="356.497" y2="141.651" gradientUnits="userSpaceOnUse">
<stop stop-color="#5D6FAA"/>
<stop offset="1" stop-color="#90AADB"/>
</linearGradient>
<linearGradient id="paint11_linear" x1="375.891" y1="117.783" x2="375.891" y2="153.87" gradientUnits="userSpaceOnUse">
<stop stop-color="#CFDDF3"/>
<stop offset="1" stop-color="#A1B8E3" stop-opacity="0"/>
</linearGradient>
<radialGradient id="paint12_radial" cx="0" cy="0" r="1" gradientUnits="userSpaceOnUse" gradientTransform="translate(351.055 110.499) scale(17.074 18.7135)">
<stop stop-color="#E1EDFF"/>
<stop offset="1" stop-color="#A1B8E3"/>
</radialGradient>
<linearGradient id="paint13_linear" x1="350.355" y1="70.5036" x2="360.626" y2="102.314" gradientUnits="userSpaceOnUse">
<stop stop-color="#2D6DC0"/>
<stop offset="1" stop-color="#143B8C"/>
</linearGradient>
<linearGradient id="paint14_linear" x1="374.981" y1="100.262" x2="382.754" y2="132.931" gradientUnits="userSpaceOnUse">
<stop stop-color="#174293" stop-opacity="0"/>
<stop offset="1" stop-color="#051E4B"/>
</linearGradient>
<linearGradient id="paint15_linear" x1="339.657" y1="123.724" x2="351.338" y2="144.923" gradientUnits="userSpaceOnUse">
<stop stop-color="#2D6DC0"/>
<stop offset="1" stop-color="#143B8C"/>
</linearGradient>
<linearGradient id="paint16_linear" x1="343.803" y1="195.733" x2="338.544" y2="215.104" gradientUnits="userSpaceOnUse">
<stop stop-color="#2E7DE7" stop-opacity="0"/>
<stop offset="1" stop-color="#00357E" stop-opacity="0.502"/>
</linearGradient>
<linearGradient id="paint17_linear" x1="366.493" y1="158.27" x2="366.493" y2="137.659" gradientUnits="userSpaceOnUse">
<stop stop-color="#70B8F9" stop-opacity="0.275"/>
<stop offset="1" stop-color="#3D82F0"/>
</linearGradient>
<linearGradient id="paint18_linear" x1="365.804" y1="200.137" x2="387.755" y2="211.432" gradientUnits="userSpaceOnUse">
<stop stop-color="#3D82F0" stop-opacity="0"/>
<stop offset="1" stop-color="#3D82F0"/>
</linearGradient>
<linearGradient id="paint19_linear" x1="314.709" y1="182.288" x2="340.83" y2="194.278" gradientUnits="userSpaceOnUse">
<stop stop-color="#3D82F0" stop-opacity="0"/>
<stop offset="1" stop-color="#3D82F0"/>
</linearGradient>
<linearGradient id="paint20_linear" x1="109.427" y1="164.112" x2="73.5815" y2="157.012" gradientUnits="userSpaceOnUse">
<stop stop-color="#7FA0D4"/>
<stop offset="1" stop-color="#D6E3FA"/>
</linearGradient>
<linearGradient id="paint21_linear" x1="176.97" y1="193.098" x2="208.744" y2="174.842" gradientUnits="userSpaceOnUse">
<stop stop-color="#002D65"/>
<stop offset="0.878" stop-color="#3A74C6"/>
<stop offset="1" stop-color="#3062AA"/>
</linearGradient>
<radialGradient id="paint22_radial" cx="0" cy="0" r="1" gradientUnits="userSpaceOnUse" gradientTransform="translate(170.337 166.103) scale(37.938 58.322)">
<stop stop-color="#2D6DC0"/>
<stop offset="1" stop-color="#143B8C"/>
</radialGradient>
<linearGradient id="paint23_linear" x1="39.6899" y1="236.604" x2="44.1497" y2="281.962" gradientUnits="userSpaceOnUse">
<stop stop-color="#EAEFFF"/>
<stop offset="1" stop-color="#F7F9FE"/>
</linearGradient>
<linearGradient id="paint24_linear" x1="241.644" y1="216.513" x2="240.275" y2="250.69" gradientUnits="userSpaceOnUse">
<stop stop-color="#0041B2"/>
<stop offset="1" stop-color="#2D64D7" stop-opacity="0"/>
</linearGradient>
<linearGradient id="paint25_linear" x1="132.863" y1="106.661" x2="132.863" y2="129.895" gradientUnits="userSpaceOnUse">
<stop stop-color="#4376C9"/>
<stop offset="1" stop-color="#D6E3FA"/>
</linearGradient>
<linearGradient id="paint26_linear" x1="127.975" y1="120.95" x2="137.978" y2="120.95" gradientUnits="userSpaceOnUse">
<stop stop-color="#133B8B" stop-opacity="0.671"/>
<stop offset="1" stop-color="#A9BFE7" stop-opacity="0"/>
</linearGradient>
<linearGradient id="paint27_linear" x1="134.352" y1="109.921" x2="134.352" y2="132.894" gradientUnits="userSpaceOnUse">
<stop stop-color="#699DF3"/>
<stop offset="1" stop-color="#8597B5" stop-opacity="0"/>
</linearGradient>
<linearGradient id="paint28_linear" x1="118.218" y1="97.1458" x2="143.328" y2="100.022" gradientUnits="userSpaceOnUse">
<stop stop-color="#7798F6"/>
<stop offset="1" stop-color="#E5EFFD"/>
</linearGradient>
<linearGradient id="paint29_linear" x1="169.1" y1="224.039" x2="193.765" y2="183.392" gradientUnits="userSpaceOnUse">
<stop stop-color="#FF7F31"/>
<stop offset="1" stop-color="#FFD25F"/>
</linearGradient>
<linearGradient id="paint30_linear" x1="243.383" y1="189.087" x2="231.923" y2="190.638" gradientUnits="userSpaceOnUse">
<stop stop-color="#FF7F31"/>
<stop offset="1" stop-color="#FFC83A" stop-opacity="0"/>
</linearGradient>
<linearGradient id="paint31_linear" x1="180.448" y1="226.348" x2="196.376" y2="215.337" gradientUnits="userSpaceOnUse">
<stop stop-color="#FF7F31"/>
<stop offset="1" stop-color="#FFC83A" stop-opacity="0"/>
</linearGradient>
<linearGradient id="paint32_linear" x1="171.405" y1="207.934" x2="166.147" y2="223.302" gradientUnits="userSpaceOnUse">
<stop stop-color="#ECF2FB"/>
<stop offset="1" stop-color="#D5E1F5"/>
</linearGradient>
<linearGradient id="paint33_linear" x1="151.794" y1="195.461" x2="132.61" y2="210.509" gradientUnits="userSpaceOnUse">
<stop stop-color="#3D82F0"/>
<stop offset="1" stop-color="#143B8C"/>
</linearGradient>
<linearGradient id="paint34_linear" x1="168.359" y1="142.517" x2="92.6131" y2="143.737" gradientUnits="userSpaceOnUse">
<stop stop-color="#70B8F9"/>
<stop offset="1" stop-color="#0457DC"/>
</linearGradient>
<linearGradient id="paint35_linear" x1="135.608" y1="152.525" x2="97.2579" y2="163.349" gradientUnits="userSpaceOnUse">
<stop stop-color="#3D82F0" stop-opacity="0"/>
<stop offset="1" stop-color="#0049BD"/>
</linearGradient>
<linearGradient id="paint36_linear" x1="211.023" y1="246.887" x2="211.023" y2="282.782" gradientUnits="userSpaceOnUse">
<stop stop-color="#B2C7E8"/>
<stop offset="1" stop-color="#D6E3FA"/>
</linearGradient>
<linearGradient id="paint37_linear" x1="235.26" y1="238.834" x2="235.26" y2="267.658" gradientUnits="userSpaceOnUse">
<stop stop-color="#C6D6EE"/>
<stop offset="1" stop-color="#E5EFFD"/>
</linearGradient>
<linearGradient id="paint38_linear" x1="297.255" y1="212.307" x2="327.145" y2="212.307" gradientUnits="userSpaceOnUse">
<stop stop-color="#002B64"/>
<stop offset="1" stop-color="#0F3177"/>
</linearGradient>
<linearGradient id="paint39_linear" x1="306.787" y1="181.582" x2="249.159" y2="218.938" gradientUnits="userSpaceOnUse">
<stop stop-color="#DBE9FF"/>
<stop offset="0.441" stop-color="#A7BDE4"/>
<stop offset="1" stop-color="#5876AF"/>
</linearGradient>
<linearGradient id="paint40_linear" x1="292.93" y1="222.823" x2="288.857" y2="232.319" gradientUnits="userSpaceOnUse">
<stop stop-color="#869FCE" stop-opacity="0"/>
<stop offset="1" stop-color="#4975C1" stop-opacity="0.231"/>
</linearGradient>
<linearGradient id="paint41_linear" x1="121.165" y1="275.075" x2="77.2383" y2="275.075" gradientUnits="userSpaceOnUse">
<stop stop-color="#D9E5F6" stop-opacity="0.714"/>
<stop offset="1" stop-color="#B2C6EA"/>
</linearGradient>
<linearGradient id="paint42_linear" x1="102.319" y1="286.285" x2="109.313" y2="258.989" gradientUnits="userSpaceOnUse">
<stop stop-color="#ACC5E9"/>
<stop offset="0.627" stop-color="#D3E3FB"/>
<stop offset="1" stop-color="#EAF2FF"/>
</linearGradient>
<linearGradient id="paint43_linear" x1="118.109" y1="242.496" x2="117.046" y2="260.113" gradientUnits="userSpaceOnUse">
<stop stop-color="#86A8D9"/>
<stop offset="1" stop-color="#BCD0F2"/>
</linearGradient>
<linearGradient id="paint44_linear" x1="89.4338" y1="180.321" x2="127.988" y2="215.007" gradientUnits="userSpaceOnUse">
<stop stop-color="#B1FFBE"/>
<stop offset="0.444" stop-color="#5CDB8E"/>
<stop offset="1" stop-color="#149654"/>
</linearGradient>
<linearGradient id="paint45_linear" x1="94.3175" y1="205.784" x2="99.8537" y2="248.29" gradientUnits="userSpaceOnUse">
<stop stop-color="#B1FFBE"/>
<stop offset="0.444" stop-color="#5CDB8E"/>
<stop offset="1" stop-color="#149654"/>
</linearGradient>
<linearGradient id="paint46_linear" x1="117.43" y1="208.238" x2="143.058" y2="247.405" gradientUnits="userSpaceOnUse">
<stop stop-color="#B1FFBE"/>
<stop offset="0.444" stop-color="#5CDB8E"/>
<stop offset="1" stop-color="#149654"/>
</linearGradient>
</defs>
</svg>
